<svg xmlns="http://www.w3.org/2000/svg" width="45" height="45" viewBox="0 0 45 45" fill="none"><path d="M43.0851 35.706C43.0851 36.4299 42.924 37.1738 42.5817 37.8976C42.2394 38.6215 41.7964 39.3051 41.2124 39.9485C40.2257 41.0342 39.1383 41.8184 37.91 42.321C36.7018 42.8237 35.3929 43.0851 33.9834 43.0851C31.9294 43.0851 29.7346 42.6025 27.4188 41.6173C25.1031 40.6321 22.7874 39.3051 20.4919 37.6363C18.1762 35.9473 15.9813 34.0774 13.8871 32.0065C11.813 29.9154 9.94029 27.7238 8.26895 25.4317C6.61775 23.1395 5.28874 20.8474 4.32218 18.5754C3.35562 16.2833 2.87234 14.0917 2.87234 12.0006C2.87234 10.6334 3.11398 9.32646 3.59726 8.12008C4.08054 6.89359 4.84573 5.76763 5.91297 4.76231C7.20171 3.49561 8.61127 2.87231 10.1014 2.87231C10.6652 2.87231 11.229 2.99295 11.7324 3.23423C12.256 3.47551 12.7191 3.83742 13.0816 4.36019L17.7533 10.935C18.1157 11.4376 18.3775 11.9001 18.5587 12.3424C18.74 12.7647 18.8407 13.1869 18.8407 13.5689C18.8407 14.0515 18.6997 14.534 18.4178 14.9965C18.156 15.4589 17.7734 15.9415 17.2901 16.424L15.7598 18.0124C15.5383 18.2336 15.4376 18.495 15.4376 18.8167C15.4376 18.9775 15.4577 19.1183 15.498 19.2791C15.5584 19.44 15.6188 19.5606 15.6591 19.6812C16.0215 20.3448 16.6458 21.2093 17.5318 22.2549C18.4379 23.3004 19.4045 24.366 20.4516 25.4317C21.539 26.4973 22.5861 27.4825 23.6533 28.3873C24.7004 29.272 25.5663 29.8752 26.2509 30.2371C26.3516 30.2773 26.4724 30.3376 26.6134 30.398C26.7745 30.4583 26.9356 30.4784 27.1168 30.4784C27.4591 30.4784 27.7209 30.3577 27.9424 30.1366L29.4728 28.6286C29.9762 28.1259 30.4595 27.7439 30.9226 27.5026C31.3858 27.2211 31.8489 27.0804 32.3523 27.0804C32.7349 27.0804 33.1376 27.1608 33.5806 27.3418C34.0236 27.5227 34.4868 27.7841 34.9902 28.1259L41.6554 32.8509C42.179 33.2128 42.5414 33.6351 42.7629 34.1377C42.9643 34.6404 43.0851 35.1431 43.0851 35.706Z" stroke="#FFC53A" stroke-width="3" stroke-miterlimit="10"></path><path d="M36.383 17.234C36.383 15.921 35.3544 13.9076 33.8225 12.2663C32.4219 10.7562 30.5617 9.57446 28.7234 9.57446" stroke="#FFC53A" stroke-width="3" stroke-linecap="round" stroke-linejoin="round"></path><path d="M43.0851 17.234C43.0851 9.29405 36.6634 2.87231 28.7234 2.87231" stroke="#FFC53A" stroke-width="3" stroke-linecap="round" stroke-linejoin="round"></path></svg>