<svg xmlns="http://www.w3.org/2000/svg" xmlns:xlink="http://www.w3.org/1999/xlink" id="Layer_1" height="512" viewBox="0 0 48 48" width="512" data-name="Layer 1"><linearGradient id="linear-gradient" gradientUnits="userSpaceOnUse" x1="24" x2="24" y1="4.274" y2="30.545"><stop offset="0" stop-color="#fd9b02"></stop><stop offset="1" stop-color="#ff7302"></stop></linearGradient><linearGradient id="linear-gradient-2" gradientUnits="userSpaceOnUse" x1="24" x2="24" y1="6.108" y2="30.882"><stop offset="0" stop-color="#edf1f2"></stop><stop offset=".336" stop-color="#e9edee"></stop><stop offset=".636" stop-color="#dee2e3"></stop><stop offset=".921" stop-color="#ccd1d2"></stop><stop offset="1" stop-color="#c6cbcc"></stop></linearGradient><linearGradient id="linear-gradient-3" gradientUnits="userSpaceOnUse" x1="16.755" x2="29.756" y1="9.755" y2="22.756"><stop offset="0" stop-color="#4793eb"></stop><stop offset="1" stop-color="#2367ec"></stop></linearGradient><linearGradient id="linear-gradient-4" gradientUnits="userSpaceOnUse" x1="-6.372" x2="34.443" y1="-3.856" y2="42.463"><stop offset="0" stop-color="#fed200"></stop><stop offset="1" stop-color="#f59815"></stop></linearGradient><linearGradient id="linear-gradient-5" x1="15.463" x2="35.412" xlink:href="#linear-gradient-4" y1="28.773" y2="62.365"></linearGradient><path d="m40 46h-32c-2.757 0-5-2.243-5-5v-21.2c0-1.527.684-2.95 1.876-3.904l16-12.8c1.839-1.472 4.408-1.472 6.247 0l16 12.8c1.192.954 1.876 2.376 1.876 3.904v21.2c0 2.757-2.243 5-5 5z" fill="url(#linear-gradient)"></path><path d="m39 38h-30c-.552 0-1-.448-1-1v-28c0-1.654 1.346-3 3-3h26c1.654 0 3 1.346 3 3v28c0 .552-.448 1-1 1z" fill="url(#linear-gradient-2)"></path><path d="m28.12 23.859c.473-.285.626-.899.341-1.373-.286-.474-.901-.625-1.373-.341-.929.56-1.997.855-3.089.855-3.309 0-6-2.691-6-6s2.691-6 6-6 6 2.691 6 6.028c-.005 1.069-.969 1.973-2.106 1.973-.262 0-.506-.105-.687-.295-.18-.19-.272-.438-.258-.701l.152-2.9c.028-.545-.171-1.085-.547-1.481s-.904-.623-1.45-.623h-.446c-2.453 0-4.554 1.993-4.682 4.451-.049.941.276 1.83.916 2.504.639.674 1.51 1.045 2.452 1.045.91 0 1.752-.36 2.399-.937.005.006.009.013.014.019.553.583 1.332.918 2.137.919h.001c2.254 0 4.096-1.778 4.106-4 0-4.411-3.589-8-8-8s-8 3.589-8 8 3.589 8 8 8c1.455 0 2.88-.395 4.12-1.141zm-3.145-6.411s0 0 0 0v.004c-.045.839-.792 1.547-1.632 1.547-.388 0-.744-.15-1.001-.421-.258-.272-.389-.635-.369-1.031.072-1.381 1.302-2.547 2.685-2.547h.446l-.128 2.448z" fill="url(#linear-gradient-3)"></path><path d="m27.125 31.912c-1.812 1.451-4.44 1.451-6.25 0l-17.499-14.001c-.241.592-.376 1.229-.376 1.889v21.2c0 2.757 2.243 5 5 5h32c2.757 0 5-2.243 5-5v-21.2c0-.66-.135-1.297-.376-1.889z" fill="url(#linear-gradient-4)"></path><path d="m27.125 29.22c-1.812-1.451-4.44-1.451-6.25 0l-17.382 13.907c.802 1.692 2.514 2.873 4.507 2.873h32c1.993 0 3.705-1.181 4.507-2.873z" fill="url(#linear-gradient-5)"></path></svg>