<svg width="17" height="17" viewBox="0 0 17 17" fill="none" xmlns="http://www.w3.org/2000/svg">
<g clip-path="url(#clip0_100_932)">
<path d="M1.3998 1.68847C0.142468 2.99447 0.399801 4.3818 0.399801 8.59647C0.399801 12.0965 -0.210866 15.6051 2.98514 16.4311C3.98314 16.6878 12.8258 16.6878 13.8225 16.4298C15.1531 16.0865 16.2358 15.0071 16.3838 13.1251C16.4045 12.8625 16.4045 4.33514 16.3831 4.06714C16.2258 2.06247 14.9918 0.907136 13.3658 0.673136C12.9931 0.619136 12.9185 0.603136 11.0065 0.599803C4.22447 0.603136 2.7378 0.301136 1.3998 1.68847Z" fill="url(#paint0_linear_100_932)"/>
<path d="M8.39886 2.69222C5.97819 2.69222 3.67953 2.47689 2.80153 4.73022C2.43886 5.66089 2.49153 6.86956 2.49153 8.60022C2.49153 10.1189 2.44286 11.5462 2.80153 12.4696C3.67753 14.7242 5.99486 14.5082 8.39753 14.5082C10.7155 14.5082 13.1055 14.7496 13.9942 12.4696C14.3575 11.5296 14.3042 10.3389 14.3042 8.60022C14.3042 6.29222 14.4315 4.80222 13.3122 3.68356C12.1789 2.55022 10.6462 2.69222 8.39619 2.69222H8.39886ZM7.86953 3.75689C12.9189 3.74889 13.5615 3.18756 13.2069 10.9856C13.0809 13.7436 10.9809 13.4409 8.39953 13.4409C3.69286 13.4409 3.55753 13.3062 3.55753 8.59756C3.55753 3.83422 3.93086 3.75956 7.86953 3.75556V3.75689ZM11.5522 4.73756C11.1609 4.73756 10.8435 5.05489 10.8435 5.44622C10.8435 5.83756 11.1609 6.15489 11.5522 6.15489C11.9435 6.15489 12.2609 5.83756 12.2609 5.44622C12.2609 5.05489 11.9435 4.73756 11.5522 4.73756ZM8.39886 5.56622C6.72353 5.56622 5.36553 6.92489 5.36553 8.60022C5.36553 10.2756 6.72353 11.6336 8.39886 11.6336C10.0742 11.6336 11.4315 10.2756 11.4315 8.60022C11.4315 6.92489 10.0742 5.56622 8.39886 5.56622ZM8.39886 6.63089C11.0022 6.63089 11.0055 10.5696 8.39886 10.5696C5.79619 10.5696 5.79219 6.63089 8.39886 6.63089Z" fill="white"/>
</g>
<defs>
<linearGradient id="paint0_linear_100_932" x1="1.43048" y1="15.5779" x2="16.3008" y2="2.70779" gradientUnits="userSpaceOnUse">
<stop stop-color="#FFDD55"/>
<stop offset="0.5" stop-color="#FF543E"/>
<stop offset="1" stop-color="#C837AB"/>
</linearGradient>
<clipPath id="clip0_100_932">
<rect width="16" height="16" fill="white" transform="translate(0.399994 0.599609)"/>
</clipPath>
</defs>
</svg>
