<svg width="136" height="36" viewBox="0 0 136 36" fill="none" xmlns="http://www.w3.org/2000/svg">
<g clip-path="url(#clip0_173_605)">
<path d="M21.9145 18.7316H3.01123V32.4595H21.9145V18.7316Z" fill="#A7A9AC"/>
<path d="M24.9961 0V32.4712H17.5754V19.561H7.42072V32.4712H0V0H7.42072V12.429H17.5754V0H24.9961Z" fill="#F66A1D"/>
<path d="M7.42072 19.561H10.0609L16.763 20.7581V33.5431C16.4737 34.0504 16.0035 34.4292 15.4468 34.6034L7.42072 19.561Z" fill="white"/>
<path d="M7.39728 19.5688L15.4234 21.3958V34.6033L7.39728 32.4595V19.5688Z" fill="#132361"/>
<path d="M14.8063 36L14.1892 35.7066L13.5877 36V33.7505H14.8063V36Z" fill="white"/>
</g>
<path d="M62.36 5.6V32H54.16V5.6H62.36ZM45.6 5.6V32H37.44V5.6H45.6ZM58.64 15.64V21.76H41.4V15.64H58.64ZM76.7256 11.6C78.9123 11.6 80.819 12.0133 82.4456 12.84C84.0723 13.64 85.339 14.8133 86.2456 16.36C87.1523 17.9067 87.6056 19.7867 87.6056 22C87.6056 24.1867 87.1523 26.0667 86.2456 27.64C85.339 29.1867 84.0723 30.3733 82.4456 31.2C80.819 32 78.9123 32.4 76.7256 32.4C74.5923 32.4 72.699 32 71.0456 31.2C69.419 30.3733 68.139 29.1867 67.2056 27.64C66.299 26.0667 65.8456 24.1867 65.8456 22C65.8456 19.7867 66.299 17.9067 67.2056 16.36C68.139 14.8133 69.419 13.64 71.0456 12.84C72.699 12.0133 74.5923 11.6 76.7256 11.6ZM76.7256 17.16C76.139 17.16 75.6323 17.3067 75.2056 17.6C74.8056 17.8933 74.499 18.4 74.2856 19.12C74.0723 19.84 73.9656 20.8 73.9656 22C73.9656 23.2 74.0723 24.16 74.2856 24.88C74.499 25.5733 74.8056 26.08 75.2056 26.4C75.6323 26.6933 76.139 26.84 76.7256 26.84C77.339 26.84 77.8456 26.6933 78.2456 26.4C78.6456 26.08 78.9523 25.5733 79.1656 24.88C79.379 24.16 79.4856 23.2 79.4856 22C79.4856 20.8 79.379 19.84 79.1656 19.12C78.9523 18.4 78.6456 17.8933 78.2456 17.6C77.8456 17.3067 77.339 17.16 76.7256 17.16ZM100.592 11.6C102.832 11.6 104.672 11.92 106.112 12.56C107.579 13.1733 108.685 13.9867 109.432 15C110.179 15.9867 110.605 17.0267 110.712 18.12L103.232 20.4C103.152 19.3067 102.925 18.4933 102.552 17.96C102.205 17.4267 101.645 17.16 100.872 17.16C100.205 17.16 99.6452 17.32 99.1919 17.64C98.7385 17.96 98.4052 18.48 98.1919 19.2C97.9785 19.92 97.8719 20.88 97.8719 22.08C97.8719 23.3067 97.9919 24.2667 98.2319 24.96C98.4985 25.6533 98.8585 26.1467 99.3119 26.44C99.7919 26.7067 100.325 26.84 100.912 26.84C101.445 26.84 101.872 26.7333 102.192 26.52C102.539 26.28 102.819 25.9467 103.032 25.52C103.245 25.0667 103.379 24.5333 103.432 23.92L110.672 26.2C110.565 27.3467 110.099 28.3867 109.272 29.32C108.472 30.2533 107.365 31 105.952 31.56C104.539 32.12 102.872 32.4 100.952 32.4C98.6585 32.4 96.6719 32 94.9919 31.2C93.3119 30.3733 92.0185 29.1867 91.1119 27.64C90.2052 26.0933 89.7519 24.2133 89.7519 22C89.7519 19.7867 90.2052 17.9067 91.1119 16.36C92.0185 14.8133 93.2852 13.64 94.9119 12.84C96.5385 12.0133 98.4319 11.6 100.592 11.6ZM123.405 11.6C125.592 11.6 127.499 12.0133 129.125 12.84C130.752 13.64 132.019 14.8133 132.925 16.36C133.832 17.9067 134.285 19.7867 134.285 22C134.285 24.1867 133.832 26.0667 132.925 27.64C132.019 29.1867 130.752 30.3733 129.125 31.2C127.499 32 125.592 32.4 123.405 32.4C121.272 32.4 119.379 32 117.725 31.2C116.099 30.3733 114.819 29.1867 113.885 27.64C112.979 26.0667 112.525 24.1867 112.525 22C112.525 19.7867 112.979 17.9067 113.885 16.36C114.819 14.8133 116.099 13.64 117.725 12.84C119.379 12.0133 121.272 11.6 123.405 11.6ZM123.405 17.16C122.819 17.16 122.312 17.3067 121.885 17.6C121.485 17.8933 121.179 18.4 120.965 19.12C120.752 19.84 120.645 20.8 120.645 22C120.645 23.2 120.752 24.16 120.965 24.88C121.179 25.5733 121.485 26.08 121.885 26.4C122.312 26.6933 122.819 26.84 123.405 26.84C124.019 26.84 124.525 26.6933 124.925 26.4C125.325 26.08 125.632 25.5733 125.845 24.88C126.059 24.16 126.165 23.2 126.165 22C126.165 20.8 126.059 19.84 125.845 19.12C125.632 18.4 125.325 17.8933 124.925 17.6C124.525 17.3067 124.019 17.16 123.405 17.16Z" fill="#132361"/>
<defs>
<clipPath id="clip0_173_605">
<rect width="25" height="36" fill="white"/>
</clipPath>
</defs>
</svg>
