<svg xmlns="http://www.w3.org/2000/svg" xmlns:xlink="http://www.w3.org/1999/xlink" id="Capa_1" height="512" viewBox="0 0 510 510" width="512"><linearGradient id="SVGID_1_" gradientUnits="userSpaceOnUse" x1="250.796" x2="274.511" y1="451.233" y2="551.175"><stop offset="0" stop-color="#ffda45"></stop><stop offset="1" stop-color="#ffa425"></stop></linearGradient><linearGradient id="SVGID_2_" gradientUnits="userSpaceOnUse" x1="354.13" x2="290.989" y1="487.945" y2="407.385"><stop offset="0" stop-color="#ffda45" stop-opacity="0"></stop><stop offset="1" stop-color="#b53759"></stop></linearGradient><linearGradient id="lg1"><stop offset="0" stop-color="#ff7044"></stop><stop offset="1" stop-color="#f92814"></stop></linearGradient><linearGradient id="SVGID_3_" gradientUnits="userSpaceOnUse" x1="128.713" x2="546.212" xlink:href="#lg1" y1="82.948" y2="500.447"></linearGradient><linearGradient id="SVGID_4_" gradientUnits="userSpaceOnUse" x1="210.128" x2="63.414" y1="164.487" y2="17.773"><stop offset="0" stop-color="#ff7044" stop-opacity="0"></stop><stop offset="1" stop-color="#ffa425"></stop></linearGradient><linearGradient id="SVGID_5_" gradientTransform="matrix(-1 0 0 -1 510 510)" gradientUnits="userSpaceOnUse" x1="175.69" x2="438.018" xlink:href="#lg1" y1="221.448" y2="483.776"></linearGradient><linearGradient id="SVGID_6_" gradientUnits="userSpaceOnUse" x1="391.836" x2="275.569" y1="346.078" y2="229.811"><stop offset="0" stop-color="#f92814" stop-opacity="0"></stop><stop offset="1" stop-color="#c1272d"></stop></linearGradient><linearGradient id="SVGID_7_" gradientUnits="userSpaceOnUse" x1="228.916" x2="291.88" y1="169.464" y2="265.484"><stop offset="0" stop-color="#f9f7fc"></stop><stop offset="1" stop-color="#f0ddfc"></stop></linearGradient><ellipse cx="255" cy="468.948" fill="url(#SVGID_1_)" rx="190.908" ry="41.052"></ellipse><path d="m445.908 468.948c0-22.672-85.472-41.052-190.908-41.052-17.54 0-34.521.511-50.655 1.464l35.735 52.572c.997 1.467 2.161 2.723 3.438 3.781l24.194 24.194c99.507-1.407 178.196-19.205 178.196-40.959z" fill="url(#SVGID_2_)"></path><path d="m464.242 209.242c0-115.561-93.68-209.242-209.241-209.242-115.058 0-208.079 92.043-209.233 207.096-.871 86.895 51.236 161.713 125.996 194.162 12.51 5.43 23.211 14.318 30.878 25.597l37.438 55.077c7.159 10.531 22.68 10.531 29.839 0l37.437-55.076c7.643-11.244 18.288-20.142 30.763-25.547 74.206-32.156 126.123-106.043 126.123-192.067z" fill="url(#SVGID_3_)"></path><path d="m255 479.404c-1.212 0-4.252-.325-6.297-3.333l-37.437-55.078c-8.804-12.952-21.028-23.084-35.35-29.299-73.532-31.917-120.525-104.335-119.721-184.494.53-52.876 21.416-102.377 58.81-139.386 37.39-37.005 87.113-57.387 139.995-57.387h.001c109.627 0 198.815 89.189 198.815 198.816 0 79.317-47.041 150.952-119.842 182.499-14.24 6.171-26.426 16.286-35.24 29.253l-37.437 55.077c-2.045 3.007-5.085 3.332-6.297 3.332z" fill="url(#SVGID_4_)"></path><circle cx="255" cy="209.242" fill="url(#SVGID_5_)" r="131.528"></circle><path d="m457.696 261.338-124.962-124.962c-19.44-20.73-47.072-33.686-77.734-33.686-58.847 0-106.552 47.705-106.552 106.552 0 30.662 12.956 58.294 33.686 77.734l131.696 131.696c6.767-7.401 15.022-13.348 24.29-17.363 58.689-25.433 103.429-76.972 119.576-139.971z" fill="url(#SVGID_6_)"></path><circle cx="255" cy="209.242" fill="url(#SVGID_7_)" r="106.552"></circle></svg>